Simulate reflexes
version=1
nRows=4
nColumns=195
inDegrees=yes
endheader
time	/jointset/ground_platform/platform_rx/value	/jointset/ground_platform/platform_rx/speed	/jointset/ground_platform/platform_ry/value	/jointset/ground_platform/platform_ry/speed	/jointset/ground_platform/platform_rz/value	/jointset/ground_platform/platform_rz/speed	/jointset/ground_platform/platform_ty/value	/jointset/ground_platform/platform_ty/speed	/jointset/ground_pelvis/pelvis_tilt/value	/jointset/ground_pelvis/pelvis_tilt/speed	/jointset/ground_pelvis/pelvis_list/value	/jointset/ground_pelvis/pelvis_list/speed	/jointset/ground_pelvis/pelvis_rotation/value	/jointset/ground_pelvis/pelvis_rotation/speed	/jointset/ground_pelvis/pelvis_tx/value	/jointset/ground_pelvis/pelvis_tx/speed	/jointset/ground_pelvis/pelvis_ty/value	/jointset/ground_pelvis/pelvis_ty/speed	/jointset/ground_pelvis/pelvis_tz/value	/jointset/ground_pelvis/pelvis_tz/speed	/jointset/hip_r/hip_flexion_r/value	/jointset/hip_r/hip_flexion_r/speed	/jointset/hip_r/hip_adduction_r/value	/jointset/hip_r/hip_adduction_r/speed	/jointset/hip_r/hip_rotation_r/value	/jointset/hip_r/hip_rotation_r/speed	/jointset/knee_r/knee_angle_r/value	/jointset/knee_r/knee_angle_r/speed	/jointset/ankle_r/ankle_angle_r/value	/jointset/ankle_r/ankle_angle_r/speed	/jointset/subtalar_r/subtalar_angle_r/value	/jointset/subtalar_r/subtalar_angle_r/speed	/jointset/mtp_r/mtp_angle_r/value	/jointset/mtp_r/mtp_angle_r/speed	/jointset/hip_l/hip_flexion_l/value	/jointset/hip_l/hip_flexion_l/speed	/jointset/hip_l/hip_adduction_l/value	/jointset/hip_l/hip_adduction_l/speed	/jointset/hip_l/hip_rotation_l/value	/jointset/hip_l/hip_rotation_l/speed	/jointset/knee_l/knee_angle_l/value	/jointset/knee_l/knee_angle_l/speed	/jointset/ankle_l/ankle_angle_l/value	/jointset/ankle_l/ankle_angle_l/speed	/jointset/subtalar_l/subtalar_angle_l/value	/jointset/subtalar_l/subtalar_angle_l/speed	/jointset/mtp_l/mtp_angle_l/value	/jointset/mtp_l/mtp_angle_l/speed	/jointset/back/lumbar_extension/value	/jointset/back/lumbar_extension/speed	/jointset/back/lumbar_bending/value	/jointset/back/lumbar_bending/speed	/jointset/back/lumbar_rotation/value	/jointset/back/lumbar_rotation/speed	/forceset/glut_med1_r/activation	/forceset/glut_med1_r/fiber_length	/forceset/glut_med2_r/activation	/forceset/glut_med2_r/fiber_length	/forceset/glut_med3_r/activation	/forceset/glut_med3_r/fiber_length	/forceset/bifemlh_r/activation	/forceset/bifemlh_r/fiber_length	/forceset/bifemsh_r/activation	/forceset/bifemsh_r/fiber_length	/forceset/sar_r/activation	/forceset/sar_r/fiber_length	/forceset/add_mag2_r/activation	/forceset/add_mag2_r/fiber_length	/forceset/tfl_r/activation	/forceset/tfl_r/fiber_length	/forceset/pect_r/activation	/forceset/pect_r/fiber_length	/forceset/grac_r/activation	/forceset/grac_r/fiber_length	/forceset/glut_max1_r/activation	/forceset/glut_max1_r/fiber_length	/forceset/glut_max2_r/activation	/forceset/glut_max2_r/fiber_length	/forceset/glut_max3_r/activation	/forceset/glut_max3_r/fiber_length	/forceset/iliacus_r/activation	/forceset/iliacus_r/fiber_length	/forceset/psoas_r/activation	/forceset/psoas_r/fiber_length	/forceset/quad_fem_r/activation	/forceset/quad_fem_r/fiber_length	/forceset/gem_r/activation	/forceset/gem_r/fiber_length	/forceset/peri_r/activation	/forceset/peri_r/fiber_length	/forceset/rect_fem_r/activation	/forceset/rect_fem_r/fiber_length	/forceset/vas_int_r/activation	/forceset/vas_int_r/fiber_length	/forceset/med_gas_r/activation	/forceset/med_gas_r/fiber_length	/forceset/lat_gas_r/activation	/forceset/lat_gas_r/fiber_length	/forceset/soleus_r/activation	/forceset/soleus_r/fiber_length	/forceset/tib_post_r/activation	/forceset/tib_post_r/fiber_length	/forceset/flex_dig_r/activation	/forceset/flex_dig_r/fiber_length	/forceset/flex_hal_r/activation	/forceset/flex_hal_r/fiber_length	/forceset/tib_ant_r/activation	/forceset/tib_ant_r/fiber_length	/forceset/per_brev_r/activation	/forceset/per_brev_r/fiber_length	/forceset/per_long_r/activation	/forceset/per_long_r/fiber_length	/forceset/per_tert_r/activation	/forceset/per_tert_r/fiber_length	/forceset/ext_dig_r/activation	/forceset/ext_dig_r/fiber_length	/forceset/ext_hal_r/activation	/forceset/ext_hal_r/fiber_length	/forceset/glut_med1_l/activation	/forceset/glut_med1_l/fiber_length	/forceset/glut_med2_l/activation	/forceset/glut_med2_l/fiber_length	/forceset/glut_med3_l/activation	/forceset/glut_med3_l/fiber_length	/forceset/bifemlh_l/activation	/forceset/bifemlh_l/fiber_length	/forceset/bifemsh_l/activation	/forceset/bifemsh_l/fiber_length	/forceset/sar_l/activation	/forceset/sar_l/fiber_length	/forceset/add_mag2_l/activation	/forceset/add_mag2_l/fiber_length	/forceset/tfl_l/activation	/forceset/tfl_l/fiber_length	/forceset/pect_l/activation	/forceset/pect_l/fiber_length	/forceset/grac_l/activation	/forceset/grac_l/fiber_length	/forceset/glut_max1_l/activation	/forceset/glut_max1_l/fiber_length	/forceset/glut_max2_l/activation	/forceset/glut_max2_l/fiber_length	/forceset/glut_max3_l/activation	/forceset/glut_max3_l/fiber_length	/forceset/iliacus_l/activation	/forceset/iliacus_l/fiber_length	/forceset/psoas_l/activation	/forceset/psoas_l/fiber_length	/forceset/quad_fem_l/activation	/forceset/quad_fem_l/fiber_length	/forceset/gem_l/activation	/forceset/gem_l/fiber_length	/forceset/peri_l/activation	/forceset/peri_l/fiber_length	/forceset/rect_fem_l/activation	/forceset/rect_fem_l/fiber_length	/forceset/vas_int_l/activation	/forceset/vas_int_l/fiber_length	/forceset/med_gas_l/activation	/forceset/med_gas_l/fiber_length	/forceset/lat_gas_l/activation	/forceset/lat_gas_l/fiber_length	/forceset/soleus_l/activation	/forceset/soleus_l/fiber_length	/forceset/tib_post_l/activation	/forceset/tib_post_l/fiber_length	/forceset/flex_dig_l/activation	/forceset/flex_dig_l/fiber_length	/forceset/flex_hal_l/activation	/forceset/flex_hal_l/fiber_length	/forceset/tib_ant_l/activation	/forceset/tib_ant_l/fiber_length	/forceset/per_brev_l/activation	/forceset/per_brev_l/fiber_length	/forceset/per_long_l/activation	/forceset/per_long_l/fiber_length	/forceset/per_tert_l/activation	/forceset/per_tert_l/fiber_length	/forceset/ext_dig_l/activation	/forceset/ext_dig_l/fiber_length	/forceset/ext_hal_l/activation	/forceset/ext_hal_l/fiber_length	/forceset/ercspn_r/activation	/forceset/ercspn_r/fiber_length	/forceset/ercspn_l/activation	/forceset/ercspn_l/fiber_length	/forceset/intobl_r/activation	/forceset/intobl_r/fiber_length	/forceset/intobl_l/activation	/forceset/intobl_l/fiber_length	/forceset/extobl_r/activation	/forceset/extobl_r/fiber_length	/forceset/extobl_l/activation	/forceset/extobl_l/fiber_length
      0.00000000	     20.00000000	      0.00000000	      0.00000000	      0.00000000	      0.00000000	      0.00000000	      0.25000000	      0.00000000	    -11.99999999	      0.00000000	      0.00000000	      0.00000000	      0.00000000	      0.00000000	      0.05000270	      0.00000000	      1.67000000	      0.00000000	      0.00000000	      0.00000000	     19.99999998	      0.00000000	     -0.99999986	      0.00000000	      4.99999985	      0.00000000	    -19.99999998	      0.00000000	     11.49999977	      0.00000000	     -0.03000064	      0.00000000	      0.00000000	      0.00000000	    -19.99999998	      0.00000000	     10.00000028	      0.00000000	      4.99999985	      0.00000000	   -119.99999986	      0.00000000	     11.49999977	      0.00000000	     -0.03000064	      0.00000000	      0.00000000	      0.00000000	      0.00000000	      0.00000000	      0.00000000	      0.00000000	      0.00000000	      0.00000000	      0.05000000	      0.04357575	      0.05000000	      0.08362391	      0.05000000	      0.06843766	      0.05000000	      0.10252054	      0.05000000	      0.16214763	      0.05000000	      0.44828157	      0.05000000	      0.08145199	      0.05000000	      0.09433646	      0.05000000	      0.06307802	      0.05000000	      0.30964682	      0.05000000	      0.09016565	      0.05000000	      0.10100256	      0.05000000	      0.11743733	      0.05000000	      0.09220087	      0.05000000	      0.08633896	      0.05000000	      0.05137182	      0.05000000	      0.02799630	      0.05000000	      0.02540625	      0.05000000	      0.09879678	      0.05000000	      0.08124441	      0.05000000	      0.09238399	      0.05000000	      0.06542811	      0.05000000	      0.08505025	      0.05000000	      0.03476839	      0.05000000	      0.03194333	      0.05000000	      0.04040403	      0.05000000	      0.07087162	      0.05000000	      0.04936739	      0.05000000	      0.04999319	      0.05000000	      0.07406410	      0.05000000	      0.08688528	      0.05000000	      0.09462792	      0.05000000	      0.04601551	      0.05000000	      0.07892451	      0.05000000	      0.06037764	      0.05000000	      0.02113236	      0.05000000	      0.12200186	      0.05000000	      0.45496511	      0.05000000	      0.05773534	      0.05000000	      0.13368846	      0.05000000	      0.07288697	      0.05000000	      0.24232005	      0.05000000	      0.06582572	      0.05000000	      0.06497935	      0.05000000	      0.05711646	      0.05000000	      0.11869224	      0.05000000	      0.11219124	      0.05000000	      0.04371493	      0.05000000	      0.02457077	      0.05000000	      0.02266386	      0.05000000	      0.18243637	      0.05000000	      0.13930721	      0.05000000	      0.06594925	      0.05000000	      0.03998752	      0.05000000	      0.08505025	      0.05000000	      0.03476839	      0.05000000	      0.03194333	      0.05000000	      0.04040403	      0.05000000	      0.07087162	      0.05000000	      0.04936739	      0.05000000	      0.04999319	      0.05000000	      0.07406410	      0.05000000	      0.08688528	      0.05000000	      0.09462792	      0.05000000	      0.11943514	      0.05000000	      0.11943514	      0.05000000	      0.09818663	      0.05000000	      0.09818663	      0.05000000	      0.13256617	      0.05000000	      0.13256617
      0.00100000	     20.00000000	      0.00000000	      0.00000000	      0.00000000	      0.00000000	     -0.00000000	      0.25000000	      0.00000000	    -11.99968195	      0.63522439	     -0.00021897	     -0.43529312	      0.00018395	      0.36841155	      0.05000283	      0.00027153	      1.66999655	     -0.00690597	     -0.00000130	     -0.00258950	     19.99872837	     -2.54020131	     -1.00085397	     -1.70468500	      4.99671249	     -6.55503806	    -19.99691432	      6.15718657	     11.47648914	    -46.75863138	     -0.01117747	     37.55417966	     -0.00000000	      0.00000000	    -19.99999998	     -0.00000000	     10.00000028	     -0.00000000	      4.99999985	     -0.00000000	   -119.99999986	     -0.00000000	     11.49999977	      0.00000000	     -0.03000064	      0.00000000	      0.00000000	      0.00000000	     -0.00039617	     -0.79096039	      0.00037909	      0.75404868	     -0.00015455	     -0.30976487	      0.04931460	      0.04357589	      0.04928705	      0.08362409	      0.04928705	      0.06843776	      0.04929003	      0.10252080	      0.04929857	      0.16214810	      0.04928919	      0.44828279	      0.04928821	      0.08145228	      0.04929614	      0.09433669	      0.04930104	      0.06307833	      0.04929315	      0.30964772	      0.04928705	      0.09016594	      0.04928705	      0.10100284	      0.04928705	      0.11743762	      0.04930292	      0.09220114	      0.04930163	      0.08633921	      0.04928705	      0.05137180	      0.04928705	      0.02799631	      0.04928705	      0.02540631	      0.04928705	      0.09879704	      0.04928705	      0.08124461	      0.04928705	      0.09238410	      0.04928705	      0.06542819	      0.04928705	      0.08505024	      0.04928705	      0.03476844	      0.04928705	      0.03194339	      0.04928705	      0.04040411	      0.04945629	      0.07087196	      0.04948023	      0.04936755	      0.04943087	      0.04999332	      0.04953418	      0.07406454	      0.04952486	      0.08688560	      0.04946231	      0.09462827	      0.04928705	      0.04601564	      0.04928705	      0.07892471	      0.04928705	      0.06037779	      0.04928705	      0.02113262	      0.04928705	      0.12200226	      0.04928705	      0.45496623	      0.04928705	      0.05773563	      0.04928705	      0.13368869	      0.04928705	      0.07288719	      0.04928705	      0.24232085	      0.04928705	      0.06582605	      0.04928705	      0.06497969	      0.04928705	      0.05711680	      0.04928705	      0.11869247	      0.04928705	      0.11219147	      0.04928705	      0.04371505	      0.04928705	      0.02457083	      0.04928705	      0.02266392	      0.04928705	      0.18243662	      0.04928705	      0.13930745	      0.04928705	      0.06594947	      0.04928705	      0.03998767	      0.04928705	      0.08505044	      0.04928705	      0.03476847	      0.04928705	      0.03194341	      0.04928705	      0.04040414	      0.04928705	      0.07087186	      0.04928705	      0.04936751	      0.04928705	      0.04999331	      0.04928705	      0.07406428	      0.04928705	      0.08688552	      0.04928705	      0.09462818	      0.04928775	      0.11943541	      0.04929232	      0.11943545	      0.04928705	      0.09818685	      0.04929134	      0.09818688	      0.04928705	      0.13256643	      0.04928705	      0.13256645
      0.00200969	     20.00000000	      0.00000000	      0.00000000	     -0.00000000	     -0.00000000	     -0.00000000	      0.25000000	      0.00000000	    -11.99872035	      1.26730036	     -0.00086951	     -0.84670454	      0.00074626	      0.74709070	      0.05000325	      0.00056195	      1.66998602	     -0.01397413	     -0.00000521	     -0.00514738	     19.99488235	     -5.06925469	     -1.00343532	     -3.40502592	      4.98682137	    -12.99969862	    -19.98761971	     12.21546992	     11.40655077	    -91.08964155	      0.04569635	     75.05244446	     -0.00000000	     -0.00000000	    -19.99999998	     -0.00000000	     10.00000028	      0.00000000	      4.99999985	     -0.00000000	   -119.99999986	      0.00000000	     11.49999977	     -0.00000000	     -0.03000064	     -0.00000000	      0.00000000	      0.00000000	     -0.00159222	     -1.57463360	      0.00150836	      1.47299207	     -0.00062839	     -0.63088549	      0.04868827	      0.04357639	      0.04857882	      0.08362455	      0.04857882	      0.06843778	      0.04859053	      0.10252162	      0.04862471	      0.16214974	      0.04858737	      0.44828642	      0.04858343	      0.08145315	      0.04861508	      0.09433741	      0.04863469	      0.06307951	      0.04860313	      0.30965072	      0.04857882	      0.09016656	      0.04857882	      0.10100343	      0.04857882	      0.11743828	      0.04864221	      0.09220204	      0.04863706	      0.08634004	      0.04857882	      0.05137096	      0.04857882	      0.02799607	      0.04857882	      0.02540644	      0.04857882	      0.09879776	      0.04857882	      0.08124499	      0.04857882	      0.09238392	      0.04857882	      0.06542805	      0.04857882	      0.08504891	      0.04857882	      0.03476843	      0.04857882	      0.03194350	      0.04857882	      0.04040422	      0.04924498	      0.07087348	      0.04948269	      0.04936818	      0.04915716	      0.04999371	      0.05023315	      0.07406704	      0.04993268	      0.08688697	      0.04927052	      0.09462977	      0.04857882	      0.04601603	      0.04857882	      0.07892529	      0.04857882	      0.06037824	      0.04857882	      0.02113341	      0.04857882	      0.12200338	      0.04857882	      0.45496920	      0.04857882	      0.05773648	      0.04857882	      0.13368933	      0.04857882	      0.07288782	      0.04857882	      0.24232310	      0.04857882	      0.06582704	      0.04857882	      0.06498072	      0.04857882	      0.05711780	      0.04857882	      0.11869315	      0.04857882	      0.11219219	      0.04857882	      0.04371541	      0.04857882	      0.02457100	      0.04857882	      0.02266411	      0.04857882	      0.18243727	      0.04857882	      0.13930813	      0.04857882	      0.06595013	      0.04857882	      0.03998815	      0.04857882	      0.08505103	      0.04857882	      0.03476870	      0.04857882	      0.03194366	      0.04857882	      0.04040446	      0.04857882	      0.07087257	      0.04857882	      0.04936788	      0.04857882	      0.04999368	      0.04857882	      0.07406485	      0.04857882	      0.08688628	      0.04857882	      0.09462900	      0.04858173	      0.11943618	      0.04859974	      0.11943647	      0.04857882	      0.09818738	      0.04859568	      0.09818764	      0.04857882	      0.13256714	      0.04857882	      0.13256728
      0.00301938	     20.00000000	      0.00000000	      0.00000000	      0.00000000	     -0.00000000	     -0.00000000	      0.25000000	      0.00000000	    -11.99712850	      1.88247926	     -0.00191207	     -1.20865543	      0.00169703	      1.13881450	      0.05000398	      0.00087965	      1.66996827	     -0.02121276	     -0.00001166	     -0.00761834	     19.98851453	     -7.53046714	     -1.00772296	     -5.08423690	      4.97055274	    -19.17295561	    -19.97234534	     17.98147576	     11.29430034	   -130.22564738	      0.14031194	    112.33602854	      0.00000000	      0.00000000	    -19.99999998	     -0.00000000	     10.00000028	     -0.00000000	      4.99999985	     -0.00000000	   -119.99999986	     -0.00000000	     11.49999977	     -0.00000000	     -0.03000064	     -0.00000000	      0.00000000	      0.00000000	     -0.00356688	     -2.33145762	      0.00332889	      2.11873271	     -0.00143395	     -0.96795625	      0.04812410	      0.04357737	      0.04788203	      0.08362515	      0.04788203	      0.06843711	      0.04790750	      0.10252300	      0.04798387	      0.16215288	      0.04790109	      0.44829233	      0.04789250	      0.08145461	      0.04796264	      0.09433863	      0.04800665	      0.06308197	      0.04793611	      0.30965618	      0.04788203	      0.09016720	      0.04788203	      0.10100392	      0.04788203	      0.11743897	      0.04802327	      0.09220374	      0.04801183	      0.08634153	      0.04788203	      0.05136818	      0.04788203	      0.02799509	      0.04788203	      0.02540659	      0.04788203	      0.09879885	      0.04788203	      0.08124523	      0.04788203	      0.09238216	      0.04788203	      0.06542680	      0.04788203	      0.08504414	      0.04788203	      0.03476798	      0.04788203	      0.03194355	      0.04788203	      0.04040420	      0.05031899	      0.07087671	      0.05250742	      0.04936907	      0.04976678	      0.04999435	      0.05561666	      0.07407197	      0.05473172	      0.08688818	      0.05072625	      0.09463268	      0.04788203	      0.04601667	      0.04788203	      0.07892623	      0.04788203	      0.06037898	      0.04788203	      0.02113474	      0.04788203	      0.12200514	      0.04788203	      0.45497347	      0.04788203	      0.05773786	      0.04788203	      0.13369038	      0.04788203	      0.07288879	      0.04788203	      0.24232657	      0.04788203	      0.06582864	      0.04788203	      0.06498237	      0.04788203	      0.05711944	      0.04788203	      0.11869424	      0.04788203	      0.11219337	      0.04788203	      0.04371597	      0.04788203	      0.02457129	      0.04788203	      0.02266444	      0.04788203	      0.18243820	      0.04788203	      0.13930918	      0.04788203	      0.06595126	      0.04788203	      0.03998895	      0.04788203	      0.08505201	      0.04788203	      0.03476909	      0.04788203	      0.03194410	      0.04788203	      0.04040500	      0.04788203	      0.07087378	      0.04788203	      0.04936850	      0.04788203	      0.04999430	      0.04788203	      0.07406579	      0.04788203	      0.08688755	      0.04788203	      0.09463038	      0.04788889	      0.11943737	      0.04792822	      0.11943832	      0.04788203	      0.09818808	      0.04791877	      0.09818895	      0.04788203	      0.13256815	      0.04788203	      0.13256861
